<svg id="Capa_1" data-name="Capa 1" xmlns="http://www.w3.org/2000/svg" viewBox="0 0 498.39 469.65"><defs><style>.cls-1{fill:none;stroke:#fff;stroke-linecap:round;stroke-linejoin:round;stroke-width:5px;}</style></defs><path class="cls-1" d="M367.22,229.21h40.23a12,12,0,0,1,12,12V425.5a12,12,0,0,1-12,12H108.66a12,12,0,0,1-12-12V241.21a12,12,0,0,1,12-12h39.58"/><polyline class="cls-1" points="99.62 433.36 223.19 309.05 257.83 330.27 294.31 308 416.49 433.36"/><polyline class="cls-1" points="148.62 198.5 99.62 233.36 257.83 330.27 416.5 233.36 367.05 198.5"/><path class="cls-1" d="M148.62,263.38V117a10.26,10.26,0,0,1,10.23-10.22h198A10.26,10.26,0,0,1,367.05,117V263.57"/><path class="cls-1" d="M288.21,270.41c-10.92,5.76-22,7.94-35.35,7.94-32.56,0-60.16-23.83-60.16-62,0-40.89,28.39-76.25,72.48-76.25,34.55,0,57.79,24.23,57.79,57.39,0,29.79-16.69,47.26-35.35,47.26-7.95,0-15.29-5.36-14.69-17.47h-.79c-7,11.72-16.09,17.47-28,17.47-11.51,0-21.44-9.33-21.44-25,0-24.63,19.45-47.05,47.05-47.05,8.54,0,16.09,1.77,21.25,4.17l-6.74,35.92c-3,15.1-.6,22.06,5.95,22.25,10.13.19,21.45-13.31,21.45-36.35,0-28.78-17.28-49.44-48-49.44-32.37,0-59.58,25.63-59.58,65.94,0,33.16,21.65,53.61,51,53.61,11.31,0,21.84-2.39,30-6.95Zm-10.92-85.77a34.17,34.17,0,0,0-9.92-1.39c-17.48,0-31.58,16.48-31.58,35.73,0,8.75,4.36,15.1,13.11,15.1,11.51,0,22-14.69,24.22-27Z"/></svg>