<svg id="Capa_1" data-name="Capa 1" xmlns="http://www.w3.org/2000/svg" viewBox="0 0 535.71 512.59"><defs><style>.cls-1{fill:none;stroke:#fff;stroke-miterlimit:10;stroke-width:5px;}</style></defs><path class="cls-1" d="M415.73,228.13a151.27,151.27,0,1,0-295.75,0,50.25,50.25,0,0,0-23.21,42.26V417.47a50.35,50.35,0,0,0,50.2,50.2H388.73a50.36,50.36,0,0,0,50.21-50.2V270.39A50.28,50.28,0,0,0,415.73,228.13ZM290,361.17v31.75a22.13,22.13,0,1,1-44.26,0V361.17a43.93,43.93,0,1,1,44.26,0Zm67.87-141H175.53a94.31,94.31,0,1,1,182.32,0Z"/></svg>