<svg id="Capa_1" data-name="Capa 1" xmlns="http://www.w3.org/2000/svg" viewBox="0 0 384.44 351.74"><defs><style>.cls-1{fill:#5c9e97;}.cls-2{fill:none;stroke:#fff;stroke-linejoin:round;stroke-width:5.36px;}</style></defs><path id="Trazado_48" data-name="Trazado 48" class="cls-1" d="M108.69,33.38H295.55a56.81,56.81,0,0,1,56.82,56.81V277.37a56.81,56.81,0,0,1-56.82,56.81H108.69a56.81,56.81,0,0,1-56.81-56.81h0V90.19A56.81,56.81,0,0,1,108.69,33.38Z"/><g id="Grupo_19" data-name="Grupo 19"><path id="Trazado_46" data-name="Trazado 46" class="cls-2" d="M202.13,65.53c-82.46,8-67,94.7-67,94.7,16.57,86.08,67,81,67,81s50.45,5.1,67-81C269.15,160.23,284.58,73.5,202.13,65.53Z"/><path id="Trazado_47" data-name="Trazado 47" class="cls-2" d="M256.64,232.92c-6.33,32.52-54.52,30.61-54.52,30.61s-48.18,1.91-54.52-30.61c0,0-62.62,5-78.57,69.11H335.22C319.26,237.94,256.64,232.92,256.64,232.92Z"/></g></svg>