<svg id="Capa_1" data-name="Capa 1" xmlns="http://www.w3.org/2000/svg" viewBox="0 0 322.35 417.47"><defs><style>.cls-1{fill:none;stroke:#fff;stroke-linecap:round;stroke-linejoin:round;stroke-width:5px;}</style></defs><g id="Seguro_medico" data-name="Seguro medico"><path id="Trazado_17" data-name="Trazado 17" class="cls-1" d="M234.24,107.54H223.77s-14.19-1.91-19.92-12.1-10.2-15.93-16.57-15.93H174.06c-6.37,0-10.83,5.73-16.56,15.93s-19.92,12.1-19.92,12.1h-10.3a4.21,4.21,0,0,0-4.19,4.19v20.94a4.21,4.21,0,0,0,4.19,4.19h107a4.21,4.21,0,0,0,4.19-4.19V111.73A4.21,4.21,0,0,0,234.24,107.54Z"/><g id="Grupo_8" data-name="Grupo 8"><path id="Trazado_18" data-name="Trazado 18" class="cls-1" d="M257.21,111.69h-8.7a3.08,3.08,0,0,1,.1.75v19.32h7a29,29,0,0,1,28.87,28.86v180a29,29,0,0,1-28.87,28.86H106.23a28.94,28.94,0,0,1-28.86-28.86V160.62a28.94,28.94,0,0,1,28.86-28.86h6.66V112.44a3.09,3.09,0,0,1,.11-.75h-8.38a46.5,46.5,0,0,0-46.37,46.36V343.14a46.5,46.5,0,0,0,46.37,46.36H257.21a46.49,46.49,0,0,0,46.36-46.36V158.05A46.49,46.49,0,0,0,257.21,111.69Z"/></g><path id="Trazado_19" data-name="Trazado 19" class="cls-1" d="M181.39,179.55l-65,21.66c0,73.28,65,114.06,65,114.06s65-40.78,65-114.06Z"/><path id="Trazado_20" data-name="Trazado 20" class="cls-1" d="M210.7,237.85h-21v-21H173.11v21h-21v16.57h21v21h16.57v-21h21Z"/></g></svg>