<svg id="Capa_1" data-name="Capa 1" xmlns="http://www.w3.org/2000/svg" viewBox="0 0 319.05 356.04"><defs><style>.cls-1,.cls-2{fill:none;stroke:#5c9e97;stroke-linecap:round;stroke-width:5px;}.cls-1{stroke-linejoin:round;}.cls-2{stroke-miterlimit:10;}</style></defs><g id="Religion"><path id="Trazado_119" data-name="Trazado 119" class="cls-1" d="M293.63,296.69C287.4,289.84,293,283,293,283a18.73,18.73,0,0,0,5.61-13.08c0-8.1-1.87-11.22-1.87-11.22l-24.3-79.75s-3.12-12.45-18.07-12.45-148,.31-148,.31a21.23,21.23,0,0,0-19.32,15c-5,14.95-27.72,92.52-27.72,92.52s-9.35,21.19,3.11,38S96.13,331,96.13,331h183.8s14.95.62,18.69-17.44C298.62,313.51,299.86,303.54,293.63,296.69ZM94.26,309.78s-17.45-3.12-17.45-20.57,17.45-20.56,17.45-20.56h183.8s-7.48,5.61-7.48,21.19,8.1,19.93,8.1,19.93Z"/><g id="Grupo_53" data-name="Grupo 53"><g id="Grupo_52" data-name="Grupo 52"><line id="Línea_15" data-name="Línea 15" class="cls-2" x1="177.12" y1="45.72" x2="177.12" y2="136.69"/><line id="Línea_16" data-name="Línea 16" class="cls-2" x1="150.96" y1="32.64" x2="124.17" y2="121.73"/></g><line id="Línea_17" data-name="Línea 17" class="cls-2" x1="203.92" y1="32.64" x2="230.71" y2="121.73"/></g></g></svg>