<svg id="Capa_1" data-name="Capa 1" xmlns="http://www.w3.org/2000/svg" viewBox="0 0 375.52 347.78"><defs><style>.cls-1{fill:#5c9e97;}.cls-2{fill:none;stroke:#fff;stroke-linejoin:round;stroke-width:5px;}</style></defs><path id="Trazado_49" data-name="Trazado 49" class="cls-1" d="M94.14,29.82H283.49a56.86,56.86,0,0,1,56.85,56.86V273a56.85,56.85,0,0,1-56.85,56.85H94.14A56.85,56.85,0,0,1,37.29,273V86.68A56.86,56.86,0,0,1,94.14,29.82Z"/><g id="Grupo_18" data-name="Grupo 18"><path id="Trazado_44" data-name="Trazado 44" class="cls-2" d="M234.65,238.22c-5,24.67-42.7,23.22-42.7,23.22s-37.75,1.45-42.71-23.22c0,0-49.06,3.81-61.55,52.43H296.21C283.71,242,234.65,238.22,234.65,238.22Z"/><path id="Trazado_45" data-name="Trazado 45" class="cls-2" d="M260.25,178.32c8.52-40.85,9.74-67.28-2.43-75.69S232.26,99,232.26,99s-4.86-30-48.67-30-66.93,44.45-64.5,74.48,15.82,61.28-14,76.29c0,0,84,39.65,172.8-4.8C277.9,215,251.73,219.16,260.25,178.32Zm-28,19.22C225,224,186,234.78,169,219.16s-30.43-60.07,7.3-67.28,42.59-31.23,42.59-31.23C237.13,119.45,239.57,171.11,232.26,197.54Z"/></g></svg>