<svg id="Capa_1" data-name="Capa 1" xmlns="http://www.w3.org/2000/svg" viewBox="0 0 391.16 334.24"><defs><style>.cls-1{fill:none;stroke:#5c9e97;stroke-linecap:round;stroke-linejoin:round;stroke-width:5px;}</style></defs><g id="Ocupacion"><path id="Trazado_109" data-name="Trazado 109" class="cls-1" d="M185,237.94H67.12A19.32,19.32,0,0,1,47.8,218.62V98.27A19.32,19.32,0,0,1,67.12,79H354.81a19.32,19.32,0,0,1,19.32,19.32V218.62a19.32,19.32,0,0,1-19.32,19.32h-118"/><rect id="Rectángulo_21" data-name="Rectángulo 21" class="cls-1" x="185.8" y="206.84" width="50" height="62" rx="4.84"/><path id="Trazado_110" data-name="Trazado 110" class="cls-1" d="M152.39,78.64V62.91a32.06,32.06,0,0,1,32.06-32.07h50.93A32.06,32.06,0,0,1,267.44,62.9h0V78.55"/><path id="Trazado_111" data-name="Trazado 111" class="cls-1" d="M363.66,235.78v54.33a23.13,23.13,0,0,1-23.13,23.13H79.3a23.14,23.14,0,0,1-23.14-23.13V234.53"/></g></svg>