<svg id="Capa_1" data-name="Capa 1" xmlns="http://www.w3.org/2000/svg" viewBox="0 0 533.7 435.96"><defs><style>.cls-1,.cls-2{fill:none;stroke:#fff;stroke-linejoin:round;stroke-width:5px;}.cls-2{stroke-linecap:round;}</style></defs><g id="Inf_basica" data-name="Inf basica"><g id="Grupo_19-2" data-name="Grupo 19-2"><path id="Trazado_46-2" data-name="Trazado 46-2" class="cls-1" d="M279,162.29C222,167.91,232.7,229,232.7,229,244.15,289.69,279,286.1,279,286.1s34.85,3.59,46.3-57.07C325.3,229,336,167.91,279,162.29Z"/><path id="Trazado_47-2" data-name="Trazado 47-2" class="cls-1" d="M316.81,279.87C312.42,302.79,279,301.44,279,301.44s-33.42,1.35-37.82-21.57c0,0-43.43,3.54-54.5,48.7H371.32C360.25,283.41,316.81,279.87,316.81,279.87Z"/></g><path id="Trazado_37-2" data-name="Trazado 37-2" class="cls-2" d="M450.18,125.33H255.52L204.66,79.87H108.21S79.39,77.66,79.39,108.7V359.77a29.4,29.4,0,0,0,29.39,29.4h341.4a29.4,29.4,0,0,0,29.42-29.39h0v-205a29.41,29.41,0,0,0-29.41-29.41Z"/></g></svg>