<svg id="Capa_1" data-name="Capa 1" xmlns="http://www.w3.org/2000/svg" viewBox="0 0 496.73 570.72"><defs><style>.cls-1,.cls-2{fill:none;stroke:#fff;stroke-linejoin:round;stroke-width:5px;}.cls-2{stroke-linecap:round;}</style></defs><g id="Indicador_Inf_ginecologica" data-name="Indicador Inf ginecologica"><g id="Grupo_18" data-name="Grupo 18"><path id="Trazado_44" data-name="Trazado 44" class="cls-1" d="M270.63,298c-3.67,18.15-31.58,17.08-31.58,17.08s-27.9,1.06-31.57-17.08A52.86,52.86,0,0,0,162,336.54H316.13A52.84,52.84,0,0,0,270.63,298Z"/><path id="Trazado_45" data-name="Trazado 45" class="cls-1" d="M289.54,253.54c6.29-30,7.19-49.49-1.8-55.67a22.43,22.43,0,0,0-18.89-2.65s-3.6-22.09-36-22.09-49.46,32.69-47.66,54.78S196.91,273,174.88,284a157.1,157.1,0,0,0,127.69-3.54S283.24,283.58,289.54,253.54Zm-20.73,14.13c-5.37,19.44-34.17,27.39-46.76,15.91s-22.47-44.18,5.38-49.48,31.46-23,31.46-23c13.56-.88,15.36,37.11,10,56.56Z"/></g><path id="Trazado_127" data-name="Trazado 127" class="cls-2" d="M405.82,138H215.65L166,93.59H71.74a25.93,25.93,0,0,0-28.16,23.48,25.55,25.55,0,0,0,0,4.71V367.05a28.72,28.72,0,0,0,28.72,28.72H405.82a28.72,28.72,0,0,0,28.73-28.71h0V166.75A28.73,28.73,0,0,0,405.84,138Z"/></g></svg>