<svg id="Capa_1" data-name="Capa 1" xmlns="http://www.w3.org/2000/svg" viewBox="0 0 382.53 417.47"><defs><style>.cls-1,.cls-2{fill:none;stroke:#fff;stroke-linecap:round;stroke-width:5px;}.cls-1{stroke-miterlimit:10;}.cls-2{stroke-linejoin:round;}</style></defs><g id="Tratamiento"><line id="Línea_1" data-name="Línea 1" class="cls-1" x1="350.76" y1="79.7" x2="277.8" y2="147.05"/><path id="Trazado_28" data-name="Trazado 28" class="cls-2" d="M261,180.72l24.32-26.19-15-16.83L242.25,162Z"/><path id="Trazado_29" data-name="Trazado 29" class="cls-2" d="M260,211.59l-46.77-50.51s19.13-8.94,38.1,10S260,211.59,260,211.59Z"/><line id="Línea_2" data-name="Línea 2" class="cls-1" x1="129.07" y1="361.25" x2="54.24" y2="280.8"/><path id="Trazado_30" data-name="Trazado 30" class="cls-2" d="M114.11,344.41,260,211.59l-46.77-50.51L68.8,296.45Z"/><line id="Línea_3" data-name="Línea 3" class="cls-1" x1="114.11" y1="295.77" x2="138.43" y2="320.09"/><line id="Línea_4" data-name="Línea 4" class="cls-1" x1="136.55" y1="275.19" x2="160.87" y2="299.51"/><line id="Línea_5" data-name="Línea 5" class="cls-1" x1="160.87" y1="254.62" x2="185.19" y2="278.94"/><line id="Línea_6" data-name="Línea 6" class="cls-1" x1="183.32" y1="232.17" x2="207.64" y2="256.49"/><line id="Línea_7" data-name="Línea 7" class="cls-1" x1="205.77" y1="211.59" x2="230.09" y2="235.91"/><line id="Línea_8" data-name="Línea 8" class="cls-1" x1="20.57" y1="333.19" x2="72.95" y2="389.31"/><path id="Trazado_31" data-name="Trazado 31" class="cls-2" d="M59.85,374.34,103.73,334,78.56,307,35.65,349.35Z"/><line id="Línea_9" data-name="Línea 9" class="cls-1" x1="48.63" y1="361.25" x2="89.79" y2="321.96"/></g></svg>