<svg id="Capa_1" data-name="Capa 1" xmlns="http://www.w3.org/2000/svg" viewBox="0 0 347.77 425.39"><defs><style>.cls-1{fill:none;stroke:#fff;stroke-linecap:round;stroke-linejoin:round;stroke-width:5px;}</style></defs><g id="Contacto_medico" data-name="Contacto medico"><circle id="Elipse_4" data-name="Elipse 4" class="cls-1" cx="185.71" cy="85.84" r="13.43"/><g id="Grupo_10" data-name="Grupo 10"><path id="Trazado_21" data-name="Trazado 21" class="cls-1" d="M185.71,59a26.84,26.84,0,0,1,26.35,21.71c6.85.71,22.24,3.6,42.25,15.29-8.42-22.48-27.43-44.24-69.05-48.18-41.82,4-60.82,25.92-69.17,48.51,20.71-12.22,36.58-15,43.27-15.67A26.86,26.86,0,0,1,185.71,59Z"/><path id="Trazado_22" data-name="Trazado 22" class="cls-1" d="M111.21,150.42c18.31,93.28,74.05,87.75,74.05,87.75s55.74,5.53,74.06-87.75a119.6,119.6,0,0,0-.25-36.28c-3.8-1.83-29.63-14-49.54-15.92a26.84,26.84,0,0,1-47.66,0c-21.5,1.89-50.22,16.08-50.45,16.2A119.56,119.56,0,0,0,111.21,150.42Z"/><path id="Trazado_23" data-name="Trazado 23" class="cls-1" d="M332.3,304.08c-9.55-37.66-34.26-56.48-54.88-65.83V257c15,4.71,15.06,18.58,15.06,18.58v24.17h-14.1V279.57s0-10.07-12.09-10.07-11.08,11.07-11.08,11.07v20.15h-14.1l-1-21.15S240.17,262.3,256,257l-.92-26.18a78.49,78.49,0,0,0-9.62-1.61c-7,35.24-60.23,33.17-60.23,33.17S132,264.43,125,229.19a80.94,80.94,0,0,0-11,1.93l-1,27.29a22.65,22.65,0,0,1-11.26,42.31h0a22.65,22.65,0,0,1-22.66-22.66h0a22.64,22.64,0,0,1,12.58-20.28V238.89c-20.32,9.57-44.13,28.39-53.47,65.19L38,357.8H333.44Zm-128.13,8.39H192.42v11.75H179V312.47H167.24V299H179V287.29h13.43V299h11.75Z"/><circle id="Elipse_5" data-name="Elipse 5" class="cls-1" cx="101.77" cy="278.06" r="8.39"/></g></g></svg>