<svg id="Capa_1" data-name="Capa 1" xmlns="http://www.w3.org/2000/svg" viewBox="0 0 369.25 126.83"><defs><style>.cls-1{fill:none;stroke:#303280;stroke-linecap:round;stroke-linejoin:round;stroke-width:5px;}</style></defs><g id="Pulsera"><path id="Trazado_132" data-name="Trazado 132" class="cls-1" d="M325.55,63.73H276.13c-16,0-22.36-5.38-22.75-5.72a14.62,14.62,0,0,0-13.25-8.44H143.36a14.62,14.62,0,0,0-13.31,8.57c-1.14.93-7.78,5.73-22.72,5.73H57.91s-9.3.26-9.3,11.92v.14c0,11.67,9.29,11.92,9.29,11.92h49.42c16.53,0,22.77,5.74,22.77,5.74v-.34a14.62,14.62,0,0,0,13.27,8.46h96.77a14.62,14.62,0,0,0,13.1-8.12s6.39-5.89,22.9-5.89h49.42s9.3-.25,9.3-11.92v-.14C334.85,64,325.55,63.73,325.55,63.73ZM242.1,81.42a10.24,10.24,0,0,1-10.23,10.24H151.63a10.24,10.24,0,0,1-10.24-10.24V69.89a10.24,10.24,0,0,1,10.24-10.25h80.23A10.24,10.24,0,0,1,242.1,69.89Z"/></g></svg>