<svg id="Capa_1" data-name="Capa 1" xmlns="http://www.w3.org/2000/svg" viewBox="0 0 338.86 385.43"><defs><style>.cls-1,.cls-2{fill:none;stroke:#5c9e97;stroke-linecap:round;stroke-width:5px;}.cls-1{stroke-linejoin:round;}.cls-2{stroke-miterlimit:10;}</style></defs><g id="Cumpleaños"><g id="Grupo_32" data-name="Grupo 32"><g id="Grupo_29" data-name="Grupo 29"><path id="Trazado_70" data-name="Trazado 70" class="cls-1" d="M174.07,94.15c-82.06,7.78-66.7,92.43-66.7,92.43,16.5,84,66.7,79,66.7,79s50.21,5,66.7-79c0,0,8.87-48.91-22.91-75.79"/><path id="Trazado_71" data-name="Trazado 71" class="cls-1" d="M228.33,257.54c-6.3,31.74-54.26,29.87-54.26,29.87s-47.95,1.87-54.25-29.87c0,0-62.32,4.9-78.2,67.45h264.9C290.65,262.44,228.33,257.54,228.33,257.54Z"/></g><g id="Grupo_30" data-name="Grupo 30"><path id="Trazado_72" data-name="Trazado 72" class="cls-1" d="M173.93,94.3l47.56-55.07-3.75,72.13s-4.15,9.54-26.72-.21C170.32,102.2,173.93,94.3,173.93,94.3Z"/><path id="Trazado_73" data-name="Trazado 73" class="cls-1" d="M253.81,75.25c-.08-3.63-3.86-19.31-10.05-20.47s-6.93-5.34-9.22-12.68-13-2.87-13-2.87,6.37-1.43,9.14,4.65-4.76,12.33.18,16.06,9.82,6.84,7.22,13.8"/><path id="Trazado_74" data-name="Trazado 74" class="cls-1" d="M221.49,39.23s11.39-4.23,17,8.82,3.82-4,9.95,2.29,7.74,15.86,10.77,15.85"/><path id="Trazado_75" data-name="Trazado 75" class="cls-2" d="M213.39,48.62s-4.24,8.63,6.75,16.55"/><path id="Trazado_76" data-name="Trazado 76" class="cls-2" d="M205.47,57.79s-6.78,10.39,13.83,23.53"/><path id="Trazado_77" data-name="Trazado 77" class="cls-2" d="M195,70s-4.67,14.86,23.37,30.11"/><path id="Trazado_78" data-name="Trazado 78" class="cls-2" d="M183.73,83s.37,22.74,25.81,32.55"/></g></g></g></svg>