<svg id="Capa_1" data-name="Capa 1" xmlns="http://www.w3.org/2000/svg" viewBox="0 0 309.84 438.61"><defs><style>.cls-1{fill:none;stroke:#fff;stroke-linecap:round;stroke-linejoin:round;stroke-width:5px;}</style></defs><g id="Contactos_de_emergencia" data-name="Contactos de emergencia"><path id="Trazado_24" data-name="Trazado 24" class="cls-1" d="M49,152.88H73.1a11.82,11.82,0,0,0,11.81-11.82h0a11.8,11.8,0,0,0-11.81-11.8H49a11.81,11.81,0,0,0-11.81,11.81h0A11.82,11.82,0,0,0,49,152.88Z"/><path id="Trazado_25" data-name="Trazado 25" class="cls-1" d="M256.18,61H89.1A37.18,37.18,0,0,0,51.92,98.19h0v21.25H73.6a21,21,0,0,1,0,42H51.93v34.77H73.6a21,21,0,0,1,0,42H51.93V272H73.6a21,21,0,0,1,0,42H51.93v19.8A37.17,37.17,0,0,0,89.08,371h167.1a37.17,37.17,0,0,0,37.17-37.17V98.19A37.17,37.17,0,0,0,256.18,61Zm-76.05,82.65c45.08,4.27,36.65,50.78,36.65,50.78-9.07,46.17-36.65,43.43-36.65,43.43s-27.59,2.74-36.65-43.43C143.47,194.44,135,147.93,180.13,143.66Zm0,126.83H107.35c8.72-34.37,43-37.06,43-37.06,3.46,17.44,29.81,16.41,29.81,16.41s26.34,1,29.81-16.41c0,0,34.24,2.69,43,37.06Z"/><path id="Trazado_26" data-name="Trazado 26" class="cls-1" d="M49,228.08H73.1a11.81,11.81,0,0,0,11.81-11.81h0A11.81,11.81,0,0,0,73.1,204.46H49a11.82,11.82,0,0,0-11.81,11.82h0A11.8,11.8,0,0,0,49,228.08Z"/><path id="Trazado_27" data-name="Trazado 27" class="cls-1" d="M84.91,293.3h0A11.81,11.81,0,0,0,73.1,281.49H49A11.81,11.81,0,0,0,37.19,293.3h0A11.81,11.81,0,0,0,49,305.11H73.1A11.82,11.82,0,0,0,84.91,293.3Z"/></g></svg>