<svg id="Capa_1" data-name="Capa 1" xmlns="http://www.w3.org/2000/svg" viewBox="0 0 312.11 349.3"><defs><style>.cls-1,.cls-2{fill:none;stroke:#5c9e97;stroke-linecap:round;stroke-width:5px;}.cls-1{stroke-miterlimit:10;}.cls-2{stroke-linejoin:round;}</style></defs><g id="Altura"><g id="Grupo_49" data-name="Grupo 49"><line id="Línea_11" data-name="Línea 11" class="cls-1" x1="97.67" y1="89.95" x2="97.67" y2="266.03"/><path id="Trazado_112" data-name="Trazado 112" class="cls-2" d="M98.36,55.47,75.37,90H120Z"/><path id="Trazado_113" data-name="Trazado 113" class="cls-2" d="M97,300.28l23-34.48H75.37Z"/><line id="Línea_12" data-name="Línea 12" class="cls-1" x1="65.26" y1="37.3" x2="130.08" y2="37.3"/><line id="Línea_13" data-name="Línea 13" class="cls-1" x1="65.26" y1="318.21" x2="130.08" y2="318.21"/></g><circle id="Elipse_17" data-name="Elipse 17" class="cls-2" cx="218.35" cy="59.83" r="22.53"/><path id="Trazado_114" data-name="Trazado 114" class="cls-2" d="M218.35,102.59H195.83s-32.88,0-32.88,32.87v47.59s-.92,14.59,14.6,14.59c0,0,12.07-.8,12.07-12.06V304s-.69,15.63,13.57,15.63c0,0,14.94,0,14.94-14.95v.23S217.67,319.7,233,319.7c0,0,13.91.35,13.91-13.91V184.88S245.48,198,260,198c0,0,10.8.23,10.8-10.8V127s.92-24.37-25.29-24.37Z"/></g><line class="cls-2" x1="218.13" y1="304.87" x2="218.13" y2="214.51"/><line class="cls-2" x1="189.68" y1="186.94" x2="189.68" y2="137.61"/><line class="cls-2" x1="246.83" y1="186.94" x2="246.83" y2="137.61"/></svg>