<svg id="Capa_1" data-name="Capa 1" xmlns="http://www.w3.org/2000/svg" viewBox="0 0 381.8 310"><defs><style>.cls-1{fill:none;stroke:#5c9e97;stroke-linecap:round;stroke-linejoin:round;stroke-width:5px;}</style></defs><g id="Donador_de_organos" data-name="Donador de organos"><path id="Trazado_124" data-name="Trazado 124" class="cls-1" d="M370,60.1V26.64a8,8,0,0,0-6.57-8.2H31.76C18.31,18.44,20,31.56,20,31.56s.66,20,.66,28.22,8.2,8.2,8.2,8.2H145.6V58a14.92,14.92,0,0,1,14.93-14.93h69.86A14.92,14.92,0,0,1,245.32,58h0V68H360.79C370.63,68,370,60.1,370,60.1Z"/><path id="Trazado_125" data-name="Trazado 125" class="cls-1" d="M28.25,68.18l23,215.2s-.32,16.08,14.11,16.08h258.5s13.78-3.28,13.78-15.09S359.9,68.51,359.9,68.51ZM194.08,249.76a65.94,65.94,0,0,1-65.94-65.94h0a65.94,65.94,0,1,1,65.94,65.94Z"/><path id="Trazado_126" data-name="Trazado 126" class="cls-1" d="M216.73,141.14c-18,1.87-24.79,14.88-26.23,18.11-1.92-2.3-12.32-13.42-30.52-9.88-25.13,4.87-40.2,48,40.86,83.45l.72.38C269.26,175.47,242.24,138.48,216.73,141.14Z"/></g></svg>