<svg id="Capa_1" data-name="Capa 1" xmlns="http://www.w3.org/2000/svg" viewBox="0 0 488.81 336.22"><defs><style>.cls-1{fill:none;stroke:#5c9e97;stroke-linecap:round;stroke-linejoin:round;stroke-width:5px;}</style></defs><g id="Estado_civil" data-name="Estado civil"><g id="Grupo_56" data-name="Grupo 56"><g id="Grupo_55" data-name="Grupo 55"><path id="Trazado_120" data-name="Trazado 120" class="cls-1" d="M155,71.21c-83.76,7.94-68.09,94.35-68.09,94.35C103.76,251.34,155,246.25,155,246.25s51.25,5.09,68.09-80.69C223.1,165.56,238.77,79.15,155,71.21Z"/><path id="Trazado_121" data-name="Trazado 121" class="cls-1" d="M210.39,238C204,270.39,155,268.49,155,268.49S106.06,270.4,99.62,238c0,0-63.61,5-79.81,68.86h270.4C274,243,210.39,238,210.39,238Z"/></g></g><g id="Grupo_58" data-name="Grupo 58"><g id="Grupo_57" data-name="Grupo 57"><path id="Trazado_122" data-name="Trazado 122" class="cls-1" d="M290.21,306.85h176.3C450.38,243.28,387,238.3,387,238.3c-6.4,32.26-55.14,30.36-55.14,30.36s-48.73,1.9-55.14-30.36a98.27,98.27,0,0,0-32.86,10"/><path id="Trazado_123" data-name="Trazado 123" class="cls-1" d="M420.09,160c11-53.42,12.57-88-3.14-99s-33-4.71-33-4.71S377.67,17,321.11,17s-86.4,58.13-83.26,97.41,20.42,80.12-18.07,99.76c0,0,108.4,51.84,223.09-6.28C442.87,207.88,409.09,213.37,420.09,160ZM384,185.1c-9.43,34.56-59.7,48.7-81.7,28.27s-39.28-78.55,9.43-88,55-40.85,55-40.85c23.57-1.57,26.71,66,17.29,100.54Z"/></g></g></g></svg>