<svg id="Capa_1" data-name="Capa 1" xmlns="http://www.w3.org/2000/svg" viewBox="0 0 286.68 326.97"><defs><style>.cls-1{fill:none;stroke:#5c9e97;stroke-linecap:round;stroke-linejoin:round;stroke-width:5px;}</style></defs><g id="Tipo_de_sangre" data-name="Tipo de sangre"><path id="Trazado_115" data-name="Trazado 115" class="cls-1" d="M252.64,178.45C234.8,114.54,140.72,25.22,136.45,21.18V21l-.09.08-.08-.08v.16c-4.28,4-98.36,93.36-116.19,157.27-18.18,65.15,43.63,142.37,116.28,140C209,320.82,270.83,243.6,252.64,178.45ZM177.28,216.5H156v21.29a19,19,0,1,1-38,0h0V216.5H96.67a19,19,0,0,1,0-38H118V157.18a19,19,0,1,1,38,0h0v21.29h21.3a19,19,0,0,1,0,38h0Z"/></g></svg>