<svg id="Capa_1" data-name="Capa 1" xmlns="http://www.w3.org/2000/svg" viewBox="0 0 364.62 345.47"><defs><style>.cls-1,.cls-2{fill:none;stroke:#5c9e97;stroke-linecap:round;stroke-width:5px;}.cls-1{stroke-linejoin:round;}.cls-2{stroke-miterlimit:10;}</style></defs><g id="Grado_maxmo_de_estudios" data-name="Grado maxmo de estudios"><g id="Grupo_46" data-name="Grupo 46"><g id="Grupo_43" data-name="Grupo 43"><path id="Trazado_104" data-name="Trazado 104" class="cls-1" d="M154.52,107c-34,25.8-24.88,76.14-24.88,76.14,16.14,82.22,65.27,77.34,65.27,77.34s49.12,4.88,65.26-77.34c0,0,9.07-50-24.51-75.85"/><path id="Trazado_105" data-name="Trazado 105" class="cls-1" d="M248,252.58c-6.16,31.07-53.09,29.24-53.09,29.24s-46.92,1.82-53.08-29.24c0,0-61,4.8-76.51,66h259.2C309,257.38,248,252.58,248,252.58Z"/></g><g id="Grupo_45" data-name="Grupo 45"><path id="Trazado_106" data-name="Trazado 106" class="cls-1" d="M196.45,29.58l-74.6,27.26,74.6,26.75,71.51-27Z"/><g id="Grupo_44" data-name="Grupo 44"><path id="Trazado_108" data-name="Trazado 108" class="cls-1" d="M154.58,68.71V103.5s12.45,19.8,40.58,19.81,40.58-19.81,40.58-19.81V68.71"/></g><line id="Línea_10" data-name="Línea 10" class="cls-2" x1="261.19" y1="59.14" x2="261.19" y2="83.47"/><rect id="Rectángulo_20" data-name="Rectángulo 20" class="cls-1" x="255.15" y="83.47" width="11.95" height="24.95" rx="4.89"/></g></g></g></svg>