<svg id="Capa_1" data-name="Capa 1" xmlns="http://www.w3.org/2000/svg" viewBox="0 0 201.03 201.03"><defs><style>.cls-1{fill:#fff;}.cls-2{fill:#6f6f6f;}.cls-3{fill:none;stroke:#5c9e97;stroke-linejoin:round;stroke-width:3.3px;}</style></defs><g id="Boton_Hombre" data-name="Boton Hombre"><g id="Trazado_48" data-name="Trazado 48"><path class="cls-1" d="M163,199.39H38a36.19,36.19,0,0,1-20.33-6.21,35.7,35.7,0,0,1-5.38-4.43,37,37,0,0,1-4.45-5.38,36.1,36.1,0,0,1-6.2-20.31V38a36.1,36.1,0,0,1,6.2-20.31,37.51,37.51,0,0,1,4.45-5.38,36.32,36.32,0,0,1,5.38-4.43A36.19,36.19,0,0,1,38,1.64H163a36.19,36.19,0,0,1,20.33,6.21,36.92,36.92,0,0,1,5.39,4.43,37.45,37.45,0,0,1,4.44,5.38A36.19,36.19,0,0,1,199.39,38V163.06a36.19,36.19,0,0,1-6.21,20.31,36.91,36.91,0,0,1-4.44,5.38,36.29,36.29,0,0,1-5.39,4.43A36.19,36.19,0,0,1,163,199.39Z"/><path class="cls-2" d="M38,3.29A34.66,34.66,0,0,0,3.29,38V163.06A34.67,34.67,0,0,0,38,197.74H163a34.66,34.66,0,0,0,34.72-34.68V38a34.6,34.6,0,0,0-10.17-24.53A34.58,34.58,0,0,0,163,3.29H38M38,0H163a38,38,0,0,1,38,38V163.06a38,38,0,0,1-38,38H38a38,38,0,0,1-38-38V38A38,38,0,0,1,38,0Z"/></g><g id="Grupo_19" data-name="Grupo 19"><path id="Trazado_46" data-name="Trazado 46" class="cls-3" d="M100.47,19.41C44.53,24.87,55,84.32,55,84.32c11.24,59,45.47,55.52,45.47,55.52s34.23,3.5,45.47-55.52C145.94,84.32,156.41,24.87,100.47,19.41Z"/><path id="Trazado_47" data-name="Trazado 47" class="cls-3" d="M137.46,134.16c-4.3,22.29-37,21-37,21s-32.69,1.31-37-21c0,0-42.49,3.44-53.31,47.37H190.76C179.94,137.6,137.46,134.16,137.46,134.16Z"/></g></g></svg>