<svg id="Capa_1" data-name="Capa 1" xmlns="http://www.w3.org/2000/svg" viewBox="0 0 367.6 341.83"><defs><style>.cls-1{fill:#fff;}.cls-2,.cls-3{fill:none;stroke-width:5px;}.cls-2{stroke:#6f6f6f;}.cls-3{stroke:#5c9e97;stroke-linejoin:round;}</style></defs><g id="Boton_mujer" data-name="Boton mujer"><g id="Rectángulo_18" data-name="Rectángulo 18"><rect class="cls-1" x="30.08" y="24.1" width="307.88" height="304.77" rx="53"/><rect class="cls-2" x="32.58" y="26.6" width="302.88" height="299.77" rx="50.5"/></g><g id="Grupo_18" data-name="Grupo 18"><path id="Trazado_44" data-name="Trazado 44" class="cls-3" d="M231.82,241.4C226.26,268.85,184,267.24,184,267.24s-42.31,1.61-47.87-25.84c0,0-55,4.24-69,58.33H300.82C286.81,245.64,231.82,241.4,231.82,241.4Z"/><path id="Trazado_45" data-name="Trazado 45" class="cls-3" d="M260.52,174.75c9.55-45.45,10.91-74.86-2.73-84.22s-28.65-4-28.65-4S223.69,53.1,174.58,53.1s-75,49.46-72.3,82.88S120,204.15,86.59,220.86c0,0,94.12,44.12,193.7-5.34C280.3,215.52,251,220.2,260.52,174.75Zm-31.38,21.38c-8.18,29.41-51.83,41.44-70.93,24.07s-34.1-66.84,8.19-74.86,47.74-34.76,47.74-34.76C234.6,109.25,237.33,166.72,229.14,196.13Z"/></g></g></svg>