<svg id="Capa_1" data-name="Capa 1" xmlns="http://www.w3.org/2000/svg" viewBox="0 0 201.03 201.03"><defs><style>.cls-1{fill:#fff;}.cls-2,.cls-3{fill:none;stroke-width:3.28px;}.cls-2{stroke:#6f6f6f;}.cls-3{stroke:#5c9e97;stroke-linejoin:round;}</style></defs><g id="Boton_mujer" data-name="Boton mujer"><g id="Rectángulo_18" data-name="Rectángulo 18"><path class="cls-1" d="M34.61,0H166.42A34.78,34.78,0,0,1,201,35V166.07a34.78,34.78,0,0,1-34.61,35H34.61A34.78,34.78,0,0,1,0,166.07V35A34.78,34.78,0,0,1,34.61,0Z"/><path class="cls-2" d="M34.61,1.65H166.42A33.14,33.14,0,0,1,199.4,35V166.07a33.14,33.14,0,0,1-33,33.31H34.61a33.15,33.15,0,0,1-33-33.31V35A33.15,33.15,0,0,1,34.61,1.65Z"/></g><g id="Grupo_18" data-name="Grupo 18"><path id="Trazado_44" data-name="Trazado 44" class="cls-3" d="M131.73,143.34c-3.63,18.1-31.26,17-31.26,17s-27.63,1.06-31.26-17c0,0-35.91,2.79-45,38.47H176.78C167.64,146.13,131.73,143.34,131.73,143.34Z"/><path id="Trazado_45" data-name="Trazado 45" class="cls-3" d="M150.47,99.37c6.23-30,7.12-49.38-1.79-55.55S130,41.17,130,41.17s-3.56-22-35.63-22-49,32.62-47.2,54.67,11.57,45-10.25,56c0,0,61.46,29.1,126.48-3.53C163.38,126.26,144.23,129.35,150.47,99.37ZM130,113.48c-5.34,19.39-33.85,27.33-46.31,15.87S61.4,85.26,89,80,120.18,57,120.18,57C133.54,56.16,135.33,94.08,130,113.48Z"/></g></g></svg>