<svg id="Capa_1" data-name="Capa 1" xmlns="http://www.w3.org/2000/svg" viewBox="0 0 372.6 344.96"><defs><style>.cls-1{fill:#fff;}.cls-2{fill:#6f6f6f;}.cls-3{fill:none;stroke:#5c9e97;stroke-linejoin:round;stroke-width:5px;}</style></defs><g id="Boton_Hombre" data-name="Boton Hombre"><g id="Trazado_48" data-name="Trazado 48"><path class="cls-1" d="M276.12,317.14h-190a55.08,55.08,0,0,1-30.89-9.43,55.33,55.33,0,0,1-20-24.32,54.93,54.93,0,0,1-4.34-21.51V71.58a55.08,55.08,0,0,1,9.43-30.89A55.62,55.62,0,0,1,55.26,25.76a55.08,55.08,0,0,1,30.89-9.43h190A55.08,55.08,0,0,1,307,25.76a55.33,55.33,0,0,1,20,24.32,54.88,54.88,0,0,1,4.34,21.5v190.3A54.93,54.93,0,0,1,327,283.39a55.47,55.47,0,0,1-20,24.32,55.08,55.08,0,0,1-30.9,9.43Z"/><path class="cls-2" d="M86.15,18.83A52.69,52.69,0,0,0,33.4,71.58v190.3a52.69,52.69,0,0,0,52.75,52.76h190a52.69,52.69,0,0,0,52.76-52.76V71.58a52.69,52.69,0,0,0-52.76-52.75h-190m0-5h190a57.75,57.75,0,0,1,57.76,57.75v190.3a57.76,57.76,0,0,1-57.76,57.76h-190A57.75,57.75,0,0,1,28.4,261.88V71.58A57.74,57.74,0,0,1,86.15,13.83Z"/></g><g id="Grupo_19" data-name="Grupo 19"><path id="Trazado_46" data-name="Trazado 46" class="cls-3" d="M181.07,43.83c-84.68,8.28-68.84,98.37-68.84,98.37,17,89.43,68.84,84.13,68.84,84.13s51.81,5.3,68.83-84.13C249.9,142.2,265.75,52.11,181.07,43.83Z"/><path id="Trazado_47" data-name="Trazado 47" class="cls-3" d="M237.06,217.71c-6.5,33.79-56,31.8-56,31.8s-49.48,2-56-31.8c0,0-64.31,5.22-80.68,71.79H317.74C301.37,222.93,237.06,217.71,237.06,217.71Z"/></g></g></svg>