<svg id="Capa_1" data-name="Capa 1" xmlns="http://www.w3.org/2000/svg" viewBox="0 0 419.19 330.94"><defs><style>.cls-1{fill:none;stroke:#5c9e97;stroke-linecap:round;stroke-linejoin:round;stroke-width:5px;}</style></defs><g id="Lugar_de_recidencia-2" data-name="Lugar de recidencia-2"><path id="Trazado_129" data-name="Trazado 129" class="cls-1" d="M136.91,23.35S52.18,53,41.85,152.16c0,0,18.6,4.82,20,19.28s-6.2,31,6.2,30.31,20,2.76,23.42,6.89,6.88,4.13,13.08,6.89,15.85,10.33,13.09,15.84-10.33,4.13-11.71,13.78,0,12.4,3.45,18.6S123.13,281,122.44,303c0,0,15.16,9.64,29.62,12.4,0,0,1.38-14.46,33.76-44.08,0,0,21.35-15.85,10.33-22.74S158.26,231.37,150.69,221s-34.44-6.2-38.58-9.64-1.38-5.51-6.2-9-6.2-4.13-14.46-5.51-12.4-4.13-12.4-6.2,2.06-13.77,7.57-21.35H99.71s3.45,7.57,8.27,6.89,1.38-15.85,6.89-20.67S135.53,137,135.53,137s6.89,1.38,13.09-4.82,20-20.67,20.66-21.36,3.45-5.51-2.06-6.88-12.4-6.89-15.16-10.34-21.35-1.37-24.1,7.58.68,15.15-2.76,15.15-23.42-23.42-23.42-23.42-3.44-4.82,2.07-7.57,7.57-5.51,11-6.2,6.2-6.89,6.89-10.34,4.13-5.51,4.13-5.51,20.66,14.47,23.42,15.16,3.44.69,4.82,0,2.76-4.82,4.82-6.89,2.07-4.13.69-4.82-12.4-8.27-20.66-11,1.37-24.11,2.06-26.18S139,24,136.91,23.35Z"/><path id="Trazado_130" data-name="Trazado 130" class="cls-1" d="M154.13,17.83s28.24-10.33,66.81-3.44c0,0,3.45,15.15-.68,24.8s-2.76,16.53-14.47,23.42-16.53,17.91-19.29,22c0,0-8.26,4.13-13.08-9s.68-35.82-3.45-40-6.2-4.13-9.64-5.51S152.75,26.79,154.13,17.83Z"/><path id="Trazado_131" data-name="Trazado 131" class="cls-1" d="M291.89,47.45s34.45,13.78,53,74.4-6.2,106.08-6.2,106.08-26.17,15.15-26.17,42c0,0-19.29,24.8-49.6,37.2,0,0-6.89-6.89-3.45-27.56s14.47-10.33,8.27-24.11-6.89-37.2-6.89-37.2-14.46,4.82-20.66,2.76S232,218.28,228.52,219s-12.4-15.84-12.4-22,8.26-19.29,13.09-24.8,18.6-15.15,24.1-14.47,27.56,6.89,32.38,11c0,0,28.93,2.75,33.75,3.44s7.58,2.75,8.27,6.89,2.06,25.48,2.06,25.48l9.65-10.33,6.2-17.22s-14.46-11.71-16.53-17.22-2.07-5.51-6.2-5.51-13.09-4.13-15.84-5.51,12.4-2.07,20.66-4.13.69-11.71-4.13-19.29l-16.53,2.07-6.89,13.77-7.58-8.26L285,134.24l-9,7.58.69-9.64H263S259.52,146,256.76,146s-16.53,3.45-17.9.69,0-11.71.68-11.71,12.4-4.82,15.16-11,2.75-6.89,2.75-6.89l4.82-6.2s-15.15,3.45-19.28-1.38S245.74,95,250.56,93.6s15.85,6.89,19.29,8.27,4.82,0,9,2.06,23.42,2.07,22.73-9.64-2.07-14.47-2.76-18.6-1.37-9.65-4.13-8.27-7.58,12.4-6.89,16.54-2.75,8.26-5.51,8.26-16.53-15.84-16.53-15.84,8.95-12.4,14.46-11.71S291.89,47.45,291.89,47.45Z"/></g></svg>