<svg id="Capa_1" data-name="Capa 1" xmlns="http://www.w3.org/2000/svg" viewBox="0 0 357.69 333.91"><defs><style>.cls-1,.cls-2{fill:none;stroke:#5c9e97;stroke-linecap:round;stroke-width:5px;}.cls-1{stroke-linejoin:round;}.cls-2{stroke-miterlimit:10;}</style></defs><g id="Peso"><rect id="Rectángulo_22" data-name="Rectángulo 22" class="cls-1" x="28.82" y="26.53" width="272" height="298" rx="59.13"/><path id="Trazado_116" data-name="Trazado 116" class="cls-1" d="M219.34,118.05H112s0-56.58,52.41-56.58S219.34,118.05,219.34,118.05Z"/><path id="Trazado_117" data-name="Trazado 117" class="cls-1" d="M112.15,294.81s19.9-3.31,7.74-34.26a173.83,173.83,0,0,1-12.16-65.21c0-8.84-1.1-65.21-40.89-65.21,0,0-24.32,1.1-22.1,44.21s36.47,56.37,40.89,89.53S112.15,294.81,112.15,294.81Z"/><path id="Trazado_118" data-name="Trazado 118" class="cls-1" d="M218.73,294.81s-19.89-3.31-7.73-34.26a173.62,173.62,0,0,0,12.15-65.21c0-8.84,1.1-65.21,40.9-65.21,0,0,24.31,1.1,22.1,44.21s-36.47,56.37-40.89,89.53S218.73,294.81,218.73,294.81Z"/><line id="Línea_14" data-name="Línea 14" class="cls-2" x1="166.82" y1="80.53" x2="166.82" y2="118.53"/></g></svg>